<svg viewBox="0 0 64 64" xmlns="http://www.w3.org/2000/svg" role="img" aria-label="LaundryFree">
<rect width="64" height="64" rx="14" fill="#C1F11D"/>
<g transform="translate(8 7) scale(0.2) translate(-1179 0)" fill="#12120F">
<path d="M1413.15 3.19585C1403.08 10.8347 1390.14 16.291 1364.27 23.6181C1344.62 29.2303 1338.54 31.3349 1329.66 35.544C1315.6 42.2475 1304.49 50.5099 1294.63 61.5005C1279.59 78.3371 1270.36 97.9019 1265.89 122.455C1263.37 136.252 1262.53 150.516 1263.3 164.781C1264.14 179.435 1263.65 179.279 1271.34 167.353C1293.16 133.602 1318.05 107.334 1346.23 88.5482C1353.57 83.5596 1363.5 77.7915 1362.1 79.1945C1361.75 79.5843 1357.35 83.7155 1352.31 88.3923C1341.27 98.6814 1314.28 128.613 1304.49 141.397C1291.62 158.155 1276.31 181.773 1267.78 198.142C1261.55 209.912 1252.67 230.724 1252.67 233.452C1252.67 237.038 1255.4 240 1258.83 240C1262.46 240 1263.72 238.285 1267.64 228.386C1269.38 223.943 1272.88 216.07 1275.47 210.77L1280.15 201.26L1290.08 200.715C1302.25 200.091 1311.34 198.61 1321.69 195.57C1374.27 180.292 1410.42 127.21 1418.11 54.0175C1418.95 45.5992 1419.16 38.8958 1418.88 24.0857C1418.67 13.5629 1418.25 3.89737 1417.9 2.49431L1417.34 0L1413.15 3.19585Z"/>
<path d="M1181.35 59.6298C1181.35 59.7857 1180.86 63.5272 1180.23 67.9702C1177.22 89.016 1179.88 117.389 1186.52 135.551C1192.12 150.594 1197.36 158.935 1210.72 173.745C1221.56 185.749 1246.66 209.601 1248.48 209.601C1250.16 209.601 1252.18 180.682 1251.62 164.001C1250.57 132.277 1249.04 119.961 1244.77 111.075C1238.48 97.824 1219.39 81.533 1190.3 64.5405C1185.34 61.6564 1181.35 59.4739 1181.35 59.6298Z"/>
</g>
</svg>
