<svg width="32" height="32" viewBox="0 0 32 32" fill="none" xmlns="http://www.w3.org/2000/svg">
<rect width="32" height="32" rx="4" fill="#CFFA12"/>
<path d="M14.0298 11.5455V21H12.3587V11.5455H14.0298ZM19.3399 13.9091V15.2017H15.1482V13.9091H19.3399ZM16.1961 21V13.2397C16.1961 12.7627 16.2946 12.3656 16.4916 12.0487C16.6916 11.7317 16.9594 11.4947 17.2948 11.3377C17.6303 11.1808 18.0027 11.1023 18.412 11.1023C18.7013 11.1023 18.9583 11.1254 19.183 11.1715C19.4076 11.2177 19.5738 11.2592 19.6816 11.2962L19.3492 12.5888C19.2784 12.5672 19.1891 12.5457 19.0814 12.5241C18.9737 12.4995 18.8537 12.4872 18.7213 12.4872C18.4105 12.4872 18.1904 12.5626 18.0612 12.7134C17.935 12.8612 17.8719 13.0735 17.8719 13.3505V21H16.1961Z" fill="black"/>
</svg>
