<svg width="48" height="48" viewBox="0 0 48 48" fill="none" xmlns="http://www.w3.org/2000/svg">
<rect width="48" height="48" rx="6" fill="#CFFA12"/>
<path d="M35.415 12.3196C34.4081 13.0835 33.1144 13.6291 30.5272 14.3618C28.5623 14.923 27.954 15.1335 27.0659 15.5544C25.6604 16.2247 24.5486 17.051 23.5627 18.15C22.0593 19.8337 21.1363 21.7902 20.6888 24.2455C20.437 25.6252 20.3531 27.0516 20.43 28.4781C20.514 29.9435 20.465 29.9279 21.2342 28.7353C23.4158 25.3602 25.9052 22.7334 28.7232 20.8548C29.4574 20.356 30.4503 19.7791 30.3105 19.9195C30.2755 19.9584 29.835 20.3715 29.3315 20.8392C28.2267 21.8681 25.5276 24.8613 24.5486 26.1397C23.262 27.8155 21.7307 30.1773 20.8776 31.8142C20.2552 32.9912 19.3672 35.0724 19.3672 35.3452C19.3672 35.7038 19.6399 36 19.9825 36C20.3461 36 20.472 35.8285 20.8636 34.8386C21.0384 34.3943 21.388 33.607 21.6467 33.077L22.1152 32.126L23.1082 32.0715C24.3249 32.0091 25.2339 31.861 26.2688 31.557C31.5271 30.0292 35.1423 24.721 35.9114 17.4018C35.9954 16.5599 36.0163 15.8896 35.9884 14.4086C35.9674 13.3563 35.9254 12.3897 35.8905 12.2494L35.8345 12L35.415 12.3196Z" fill="black"/>
<path d="M12.2349 17.9629C12.2349 17.9785 12.186 18.3526 12.1231 18.7969C11.8224 20.9015 12.0881 23.7388 12.7524 25.555C13.3118 27.0593 13.8362 27.8934 15.1718 29.3744C16.2556 30.5748 18.7659 32.96 18.9477 32.96C19.1156 32.96 19.3183 30.0681 19.2624 28.4C19.1575 25.2276 19.0037 23.996 18.5771 23.1074C17.9478 21.7823 16.0389 20.1532 13.13 18.454C12.6335 18.1655 12.2349 17.9473 12.2349 17.9629Z" fill="black"/>
</svg>
