<svg width="389" height="112" viewBox="0 0 389 112" fill="none" xmlns="http://www.w3.org/2000/svg">
<path d="M15.378 37.16V86H4.092V37.16H15.378ZM20.6528 67.52C20.6528 63.736 21.3568 60.414 22.7648 57.554C24.2168 54.694 26.1748 52.494 28.6388 50.954C31.1028 49.414 33.8528 48.644 36.8888 48.644C39.4848 48.644 41.7508 49.172 43.6868 50.228C45.6668 51.284 47.1848 52.67 48.2408 54.386V49.172H59.5268V86H48.2408V80.786C47.1408 82.502 45.6008 83.888 43.6208 84.944C41.6848 86 39.4188 86.528 36.8228 86.528C33.8308 86.528 31.1028 85.758 28.6388 84.218C26.1748 82.634 24.2168 80.412 22.7648 77.552C21.3568 74.648 20.6528 71.304 20.6528 67.52ZM48.2408 67.586C48.2408 64.77 47.4488 62.548 45.8648 60.92C44.3248 59.292 42.4328 58.478 40.1888 58.478C37.9448 58.478 36.0308 59.292 34.4468 60.92C32.9068 62.504 32.1368 64.704 32.1368 67.52C32.1368 70.336 32.9068 72.58 34.4468 74.252C36.0308 75.88 37.9448 76.694 40.1888 76.694C42.4328 76.694 44.3248 75.88 45.8648 74.252C47.4488 72.624 48.2408 70.402 48.2408 67.586ZM103.398 49.172V86H92.1118V80.984C90.9678 82.612 89.4058 83.932 87.4258 84.944C85.4898 85.912 83.3338 86.396 80.9578 86.396C78.1418 86.396 75.6558 85.78 73.4998 84.548C71.3438 83.272 69.6718 81.446 68.4838 79.07C67.2958 76.694 66.7018 73.9 66.7018 70.688V49.172H77.9218V69.17C77.9218 71.634 78.5598 73.548 79.8358 74.912C81.1118 76.276 82.8278 76.958 84.9838 76.958C87.1838 76.958 88.9218 76.276 90.1978 74.912C91.4738 73.548 92.1118 71.634 92.1118 69.17V49.172H103.398ZM133.284 48.776C137.596 48.776 141.028 50.184 143.58 53C146.176 55.772 147.474 59.6 147.474 64.484V86H136.254V66.002C136.254 63.538 135.616 61.624 134.34 60.26C133.064 58.896 131.348 58.214 129.192 58.214C127.036 58.214 125.32 58.896 124.044 60.26C122.768 61.624 122.13 63.538 122.13 66.002V86H110.844V49.172H122.13V54.056C123.274 52.428 124.814 51.152 126.75 50.228C128.686 49.26 130.864 48.776 133.284 48.776ZM152.413 67.52C152.413 63.736 153.117 60.414 154.525 57.554C155.977 54.694 157.935 52.494 160.399 50.954C162.863 49.414 165.613 48.644 168.649 48.644C171.069 48.644 173.269 49.15 175.249 50.162C177.273 51.174 178.857 52.538 180.001 54.254V37.16H191.287V86H180.001V80.72C178.945 82.48 177.427 83.888 175.447 84.944C173.511 86 171.245 86.528 168.649 86.528C165.613 86.528 162.863 85.758 160.399 84.218C157.935 82.634 155.977 80.412 154.525 77.552C153.117 74.648 152.413 71.304 152.413 67.52ZM180.001 67.586C180.001 64.77 179.209 62.548 177.625 60.92C176.085 59.292 174.193 58.478 171.949 58.478C169.705 58.478 167.791 59.292 166.207 60.92C164.667 62.504 163.897 64.704 163.897 67.52C163.897 70.336 164.667 72.58 166.207 74.252C167.791 75.88 169.705 76.694 171.949 76.694C174.193 76.694 176.085 75.88 177.625 74.252C179.209 72.624 180.001 70.402 180.001 67.586ZM210.078 55.31C211.398 53.286 213.048 51.702 215.028 50.558C217.008 49.37 219.208 48.776 221.628 48.776V60.722H218.526C215.71 60.722 213.598 61.338 212.19 62.57C210.782 63.758 210.078 65.87 210.078 68.906V86H198.792V49.172H210.078V55.31ZM263.982 49.172L240.882 103.49H228.738L237.186 84.746L222.204 49.172H234.81L243.324 72.206L251.772 49.172H263.982Z" fill="white"/>
<path d="M282.47 53.858H274.088V86H269.468V53.858H264.452V49.964H269.468V47.456C269.468 43.54 270.458 40.658 272.438 38.81C274.462 36.962 277.718 36.038 282.206 36.038V39.998C279.214 39.998 277.102 40.57 275.87 41.714C274.682 42.858 274.088 44.772 274.088 47.456V49.964H282.47V53.858ZM293.703 56.366C294.715 54.122 296.255 52.384 298.323 51.152C300.435 49.92 303.009 49.304 306.045 49.304V54.122H304.791C301.447 54.122 298.763 55.024 296.739 56.828C294.715 58.632 293.703 61.646 293.703 65.87V86H289.083V49.964H293.703V56.366ZM344.939 66.134C344.939 67.718 344.895 68.928 344.807 69.764H314.909C315.041 72.492 315.701 74.824 316.889 76.76C318.077 78.696 319.639 80.17 321.575 81.182C323.511 82.15 325.623 82.634 327.911 82.634C330.903 82.634 333.411 81.908 335.435 80.456C337.503 79.004 338.867 77.046 339.527 74.582H344.411C343.531 78.102 341.639 80.984 338.735 83.228C335.875 85.428 332.267 86.528 327.911 86.528C324.523 86.528 321.487 85.78 318.803 84.284C316.119 82.744 314.007 80.588 312.467 77.816C310.971 75 310.223 71.722 310.223 67.982C310.223 64.242 310.971 60.964 312.467 58.148C313.963 55.332 316.053 53.176 318.737 51.68C321.421 50.184 324.479 49.436 327.911 49.436C331.343 49.436 334.335 50.184 336.887 51.68C339.483 53.176 341.463 55.2 342.827 57.752C344.235 60.26 344.939 63.054 344.939 66.134ZM340.253 66.002C340.297 63.318 339.747 61.03 338.603 59.138C337.503 57.246 335.985 55.816 334.049 54.848C332.113 53.88 330.001 53.396 327.713 53.396C324.281 53.396 321.355 54.496 318.935 56.696C316.515 58.896 315.173 61.998 314.909 66.002H340.253ZM385.336 66.134C385.336 67.718 385.292 68.928 385.204 69.764H355.306C355.438 72.492 356.098 74.824 357.286 76.76C358.474 78.696 360.036 80.17 361.972 81.182C363.908 82.15 366.02 82.634 368.308 82.634C371.3 82.634 373.808 81.908 375.832 80.456C377.9 79.004 379.264 77.046 379.924 74.582H384.808C383.928 78.102 382.036 80.984 379.132 83.228C376.272 85.428 372.664 86.528 368.308 86.528C364.92 86.528 361.884 85.78 359.2 84.284C356.516 82.744 354.404 80.588 352.864 77.816C351.368 75 350.62 71.722 350.62 67.982C350.62 64.242 351.368 60.964 352.864 58.148C354.36 55.332 356.45 53.176 359.134 51.68C361.818 50.184 364.876 49.436 368.308 49.436C371.74 49.436 374.732 50.184 377.284 51.68C379.88 53.176 381.86 55.2 383.224 57.752C384.632 60.26 385.336 63.054 385.336 66.134ZM380.65 66.002C380.694 63.318 380.144 61.03 379 59.138C377.9 57.246 376.382 55.816 374.446 54.848C372.51 53.88 370.398 53.396 368.11 53.396C364.678 53.396 361.752 54.496 359.332 56.696C356.912 58.896 355.57 61.998 355.306 66.002H380.65Z" fill="#C1F11D"/>
<path d="M377.928 0.613009C375.996 2.07871 373.513 3.12564 368.549 4.53152C364.779 5.60836 363.612 6.01218 361.908 6.81981C359.211 8.10604 357.078 9.69139 355.186 11.8002C352.301 15.0307 350.53 18.7847 349.672 23.4959C349.189 26.1432 349.028 28.8801 349.175 31.6171C349.336 34.4289 349.242 34.399 350.718 32.1107C354.904 25.6347 359.681 20.5944 365.088 16.99C366.496 16.0328 368.402 14.926 368.133 15.1953C368.066 15.27 367.221 16.0627 366.255 16.9601C364.135 18.9343 358.956 24.6775 357.078 27.1303C354.609 30.3458 351.671 34.8776 350.034 38.0184C348.84 40.2767 347.136 44.27 347.136 44.7935C347.136 45.4815 347.659 46.0498 348.316 46.0498C349.014 46.0498 349.256 45.7208 350.007 43.8213C350.342 42.9688 351.013 41.4583 351.51 40.4412L352.409 38.6166L354.314 38.5119C356.648 38.3923 358.393 38.1081 360.378 37.5248C370.468 34.5934 377.404 24.4082 378.88 10.3644C379.041 8.74916 379.081 7.46293 379.028 4.62126C378.988 2.60218 378.907 0.747614 378.84 0.478404L378.733 -0.000193261L377.928 0.613009Z" fill="#C1F11D"/>
<path d="M333.451 11.4416C333.451 11.4716 333.357 12.1894 333.236 13.042C332.659 17.0801 333.169 22.5242 334.444 26.0089C335.517 28.8955 336.523 30.4958 339.086 33.3375C341.166 35.6407 345.982 40.2173 346.331 40.2173C346.653 40.2173 347.042 34.6686 346.935 31.4679C346.734 25.3808 346.438 23.0177 345.62 21.3127C344.412 18.7702 340.75 15.6443 335.168 12.3839C334.216 11.8305 333.451 11.4117 333.451 11.4416Z" fill="#C1F11D"/>
</svg>
