<svg width="32" height="32" viewBox="0 0 32 32" fill="none" xmlns="http://www.w3.org/2000/svg">
<rect width="32" height="32" rx="4" fill="#CFFA12"/>
<path d="M12.6705 7.04545V24.5H9.58523V7.04545H12.6705ZM22.4737 11.4091V13.7955H14.7351V11.4091H22.4737ZM16.6697 24.5V10.1733C16.6697 9.29261 16.8516 8.55966 17.2152 7.97443C17.5845 7.3892 18.0788 6.9517 18.6982 6.66193C19.3175 6.37216 20.005 6.22727 20.7607 6.22727C21.2947 6.22727 21.7692 6.26989 22.1839 6.35511C22.5987 6.44034 22.9055 6.51705 23.1044 6.58523L22.4908 8.97159C22.3601 8.93182 22.1953 8.89204 21.9964 8.85227C21.7976 8.80682 21.576 8.78409 21.3317 8.78409C20.7578 8.78409 20.3516 8.9233 20.1129 9.2017C19.88 9.47443 19.7635 9.86648 19.7635 10.3778V24.5H16.6697Z" fill="black"/>
</svg>
