<svg width="180" height="180" viewBox="0 0 180 180" fill="none" xmlns="http://www.w3.org/2000/svg">
<rect width="180" height="180" rx="32" fill="#CFFA12"/>
<path d="M82.1761 68.3636V112H74.4631V68.3636H82.1761ZM106.684 79.2727V85.2386H87.3377V79.2727H106.684ZM92.1744 112V76.1832C92.1744 73.9815 92.6289 72.1491 93.538 70.6861C94.4613 69.223 95.6971 68.1293 97.2454 67.4048C98.7937 66.6804 100.512 66.3182 102.402 66.3182C103.737 66.3182 104.923 66.4247 105.96 66.6378C106.997 66.8509 107.764 67.0426 108.261 67.2131L106.727 73.179C106.4 73.0795 105.988 72.9801 105.491 72.8807C104.994 72.767 104.44 72.7102 103.829 72.7102C102.395 72.7102 101.379 73.0582 100.782 73.7543C100.2 74.4361 99.9087 75.4162 99.9087 76.6946V112H92.1744Z" fill="black"/>
</svg>
